# xmcd
#
# Track frame offsets:
#	150
#	17418
#	34619
#	51945
#	66606
#	83796
#	103350
#	121325
#	137508
#	154188
#	172787
#	189935
#	206516
#
# Disc length: 3003 seconds
#
# Revision: 1
# Processed by: cddbd v1.5.2PL0 Copyright (c) Steve Scherf et al.
# Submitted via: audiograbber 1.83.01
#
DISCID=a90bb90d
DTITLE=ALCYMAR MONTEIRO - CANTORIAS BRASILEIRAS
DYEAR=1900
DGENRE=
TTITLE0=PROCISSÃO
TTITLE1=ÚLTIMOS SENTIMENTOS
TTITLE2=CALIX BENTO
TTITLE3=O CIO DA TERRA
TTITLE4=LAMENTO CEGO
TTITLE5=CASA VELHA
TTITLE6=MARIA GULORA
TTITLE7=CUITELINHO
TTITLE8=GRAÇA ALCANÇADA
TTITLE9=SÚPLICA DOS ECÓLOGOS
TTITLE10=PRA QUE UMA REDE ARMADA COM TANTOS SONHOS PERDIDOS
TTITLE11=INGÉN DE FERRO
TTITLE12=AMIGO DO PEITO
EXTD=
EXTT0=
EXTT1=
EXTT2=
EXTT3=
EXTT4=
EXTT5=
EXTT6=
EXTT7=
EXTT8=
EXTT9=
EXTT10=
EXTT11=
EXTT12=
PLAYORDER=
